<?xml version="1.0" standalone="no"?>
<!DOCTYPE svg PUBLIC "-//W3C//DTD SVG 20010904//EN"
 "http://www.w3.org/TR/2001/REC-SVG-20010904/DTD/svg10.dtd">
<svg version="1.0" xmlns="http://www.w3.org/2000/svg"
 width="250.000000pt" height="231.000000pt" viewBox="0 0 250.000000 231.000000"
 preserveAspectRatio="xMidYMid meet">

<g transform="translate(0.000000,231.000000) scale(0.100000,-0.100000)"
fill="#000000" stroke="none">
<path d="M1274 1832 c-75 -27 -120 -66 -157 -139 -25 -48 -31 -131 -14 -180
l15 -43 -337 0 -338 0 -21 -23 c-22 -23 -22 -26 -22 -430 0 -394 1 -408 20
-427 19 -19 33 -20 254 -20 l233 0 7 -38 c16 -100 104 -225 201 -287 225 -144
528 -59 646 181 18 35 33 64 34 64 1 0 19 -7 38 -15 86 -36 213 -6 284 67 79
81 83 98 83 390 0 256 0 257 -24 284 l-23 28 -194 2 c-107 1 -299 2 -426 3
l-233 1 0 35 0 35 48 0 c186 0 316 178 256 352 -45 133 -198 207 -330 160z
m-204 -587 l0 -55 -83 0 -83 0 2 -207 c1 -115 0 -216 -3 -225 -3 -14 -15 -18
-59 -18 l-54 0 0 225 0 225 -85 0 -85 0 0 55 0 55 225 0 225 0 0 -55z"/>
<path d="M1905 1691 c-45 -11 -69 -26 -103 -65 -30 -34 -52 -90 -52 -130 0
-96 100 -196 196 -196 65 0 149 52 178 109 54 106 1 235 -113 276 -47 16 -60
17 -106 6z"/>
</g>
</svg>
